<svg width="130" height="54" viewBox="0 0 130 54" fill="none" xmlns="http://www.w3.org/2000/svg">
<g filter="url(#filter0_d_149_199)">
<path d="M24.9743 45.998L21.334 45.9493V22.5014L16.762 35.7119L13.6827 36.2305L11.7702 28.5873L9.95056 20.2842L10.9102 28.2943L10.5026 45.8096L6 45.7519C6 44.9638 6.68309 4.75615 6.68309 4.75615H9.68965L14.7767 27.7741L14.5001 32.0566L20.0743 4.75615H23.9005L24.9743 45.998ZM43.413 9.83137L44.265 23.033L43.7701 36.1211L40.4635 45.0435L33.2276 45.998L28.5313 37.1589L28.5033 15.5487C28.3555 14.9859 30.5212 6.83079 30.5212 6.83079L36.7952 4L39.6561 4.7428L34.1871 8.32432L30.9298 15.6844L31.0317 31.3015C31.0317 31.3015 33.2891 40.4538 33.5188 40.4538C33.7484 40.4538 36.4761 42.9314 36.4761 42.9314L39.2441 40.7369L41.4646 33.0466L42.4321 22.7143L40.7524 14.3633L36.8847 15.1185L34.4928 23.518L35.3069 27.5274L38.1567 26.8197L36.8209 21.7718L38.6909 21.3472C38.6909 21.3472 39.4546 27.5036 39.4546 27.7163C39.4546 27.8703 37.5466 37.3407 37.5466 37.3407L35.9431 38.969L34.5692 30.7598L33.4237 23.5185L35.0271 12.5008L40.3907 6.85626L43.413 9.83137ZM61.5392 4.5651L59.4901 17.8665H56.9561L59.3926 18.4973L55.1544 45.9971L52.7312 45.8114L45.4427 4.56459H50.0998L53.1332 28.8663L53.8062 35.4517L53.5889 31.0391L57.2831 4.56444H61.5393L61.5392 4.5651ZM71.9412 42.2591L74.2884 42.2704L74.1249 45.998L65.7963 45.9833L65.6093 42.6486L67.6786 42.5082L67.8947 36.1851L67.4748 12.8274L67.0224 21.0561C66.8981 16.7634 66.8018 11.9239 66.7391 8.81823L63.9072 8.93826V4.85169L74.5451 4.7758L74.3816 8.63134L71.8901 8.59966L71.9412 42.2591ZM92.3527 33.7271C92.5151 34.2932 92.5802 38.8226 92.2543 39.3878C91.9296 39.9539 86.8358 45.9289 86.8358 45.9289L84.089 45.9855L81.5651 45.9957L82.0936 40.4497L82.4642 36.764L83.1831 33.3263L84.4138 30.3981L87.6085 32.3695L88.6789 37.2644L86.7283 39.0862L85.427 38.7318L87.0933 37.1568L84.9388 34.4325L83.8818 39.5279L83.9837 41.5808L84.8168 42.5828L86.5514 42.3473L89.1122 39.7645L90.3048 34.9998L88.2859 30.8838L85.6847 27.8174L83.1507 27.2161L81.6872 29.808L80.7803 36.8715C80.7803 36.8715 80.2854 45.7318 80.2383 45.6527V45.7364L78.1791 45.9357C78.0168 45.8361 78.1791 4.78937 78.1791 4.78937L84.0313 5.49595L86.7949 7.76053L89.3961 13.2806L89.1095 14.5782L87.8251 12.7144C87.8251 12.7144 84.898 9.22229 84.5732 9.12834C84.2485 9.03439 81.5386 8.4682 81.5386 8.4682L80.0752 11.8651V16.3944L83.2183 18.4698L85.6605 17.0544L86.768 15.0785L84.6001 12.9555L83.1366 13.6869L84.7088 15.2915L83.814 16.4L81.5924 15.0741L81.9989 12.1074L82.8936 10.8335L86.2261 12.6486L88.8822 15.8802L86.1454 20.6403L82.8936 21.9142L86.47 24.1788L89.3971 26.1603C89.3971 26.1603 91.1181 28.9492 91.2804 29.3739C91.4427 29.7986 92.1908 33.1603 92.3531 33.7265L92.3527 33.7271ZM99.3303 42.1221L106.448 41.7507V45.8712L95.0483 45.998L95.3406 29.5004L94.2925 4.81319L105.967 4.78942L105.652 8.81823L97.395 8.60652L99.7667 9.25986L98.3984 22.176L104.395 22.5531L104.581 27.0822L100.089 27.2385L99.7982 24.9354L99.3303 42.1221ZM119.619 10.4134L116.281 8.69938L113.901 10.2632L113.561 13.7801L113.942 15.7786C115.012 17.0626 119.78 24.6738 119.78 24.6738L123.419 31.2108C123.419 31.2108 124.02 39.2652 124 39.6546C123.979 40.044 121.677 44.948 121.677 44.948L115.622 46L110.924 43.8192L108.842 39.9093L109.836 32.9386L114.857 30.726L118.093 33.61L118.56 38.0282L116.256 40.6302L113.296 39.8206L113.529 36.8483L115.325 35.8337L115.254 36.8959L114.134 38.5706L115.996 38.2943L116.763 35.5643L114.706 34.2938L112.917 36.0285L112.245 38.8649L112.564 40.7399L117.085 41.8847L119.279 38.9894L119.803 37.0826L119.43 32.4707L116.116 25.5839L111.96 20.0662L109.772 12.858L111.171 6.86581L115.791 4.49134L121.109 6.22825L122.876 8.69889L122.929 13.7297L120.829 17.1979L116.843 17.0711L114.767 13.5337L115.649 11.0405L117.189 10.5445L119.184 12.2079L118.871 13.7297L117.084 12.9258L118.976 15.4078L120.281 13.8882L119.619 10.4134Z" fill="#3DD2CC"/>
</g>
<defs>
<filter id="filter0_d_149_199" x="0" y="0" width="130" height="54" filterUnits="userSpaceOnUse" color-interpolation-filters="sRGB">
<feFlood flood-opacity="0" result="BackgroundImageFix"/>
<feColorMatrix in="SourceAlpha" type="matrix" values="0 0 0 0 0 0 0 0 0 0 0 0 0 0 0 0 0 0 127 0" result="hardAlpha"/>
<feOffset dy="2"/>
<feGaussianBlur stdDeviation="3"/>
<feComposite in2="hardAlpha" operator="out"/>
<feColorMatrix type="matrix" values="0 0 0 0 0.239216 0 0 0 0 0.823529 0 0 0 0 0.8 0 0 0 0.45 0"/>
<feBlend mode="normal" in2="BackgroundImageFix" result="effect1_dropShadow_149_199"/>
<feBlend mode="normal" in="SourceGraphic" in2="effect1_dropShadow_149_199" result="shape"/>
</filter>
</defs>
</svg>
